<?xml version="1.0" standalone="no"?>
<!DOCTYPE svg PUBLIC "-//W3C//DTD SVG 20010904//EN"
 "http://www.w3.org/TR/2001/REC-SVG-20010904/DTD/svg10.dtd">
<svg version="1.0" xmlns="http://www.w3.org/2000/svg"
 width="838.000000pt" height="354.000000pt" viewBox="0 0 838.000000 354.000000"
 preserveAspectRatio="xMidYMid meet">
<metadata>
Created by potrace 1.16, written by Peter Selinger 2001-2019
</metadata>
<g transform="translate(0.000000,354.000000) scale(0.100000,-0.100000)"
fill="#000000" stroke="none">
<path d="M228 3479 c-99 -59 -139 -290 -78 -452 65 -174 241 -342 486 -465
307 -154 557 -214 964 -231 233 -10 510 3 815 39 311 37 769 51 983 31 62 -7
117 -9 121 -7 4 3 25 -1 47 -9 21 -8 53 -14 69 -15 43 0 287 -75 364 -111 229
-106 327 -210 363 -388 28 -136 14 -194 -67 -282 -58 -62 -77 -102 -83 -175
-6 -75 21 -141 71 -176 18 -12 34 -23 36 -24 2 -2 -13 -17 -33 -34 -19 -18
-50 -60 -67 -95 -26 -53 -31 -76 -32 -140 -1 -62 -4 -75 -17 -73 -23 5 -28 46
-29 288 -1 245 -12 321 -56 396 -56 95 -156 152 -288 161 -122 8 -230 -22
-325 -94 l-32 -24 -47 41 c-63 55 -131 75 -258 75 -88 0 -107 -3 -159 -27 -58
-28 -58 -28 -82 -9 -40 31 -74 33 -199 11 -65 -11 -134 -20 -154 -20 -54 0
-109 -43 -111 -85 -1 -11 -10 4 -22 34 -17 46 -26 56 -64 72 -43 20 -45 20
-191 -2 -82 -11 -159 -23 -171 -25 -32 -6 -71 -47 -78 -83 l-6 -29 -35 38
c-98 109 -270 157 -409 115 -27 -8 -55 -15 -61 -15 -10 0 -13 46 -13 195 0
222 -3 232 -73 260 -40 16 -49 16 -187 -5 -80 -12 -160 -27 -179 -34 -49 -16
-76 -57 -76 -115 0 -81 27 -113 108 -126 l37 -6 0 -462 0 -463 -44 1 -44 0 -4
240 c-4 184 -9 252 -21 290 -37 113 -107 184 -225 228 -83 31 -272 30 -356 -1
-129 -48 -212 -127 -242 -230 -27 -93 0 -179 73 -228 l32 -21 -40 -39 c-23
-21 -53 -61 -67 -89 -24 -45 -27 -61 -27 -150 0 -116 17 -166 80 -227 58 -57
116 -81 216 -86 96 -5 166 7 235 40 40 18 49 20 68 8 54 -35 86 -45 152 -48
62 -4 81 0 132 23 34 15 68 36 78 46 16 17 17 17 43 -1 80 -58 365 -89 514
-56 285 64 450 292 434 601 -3 55 -12 121 -20 147 l-15 46 37 -5 c20 -3 38 -8
41 -10 3 -3 6 -124 8 -269 l3 -264 -23 0 c-13 0 -41 -9 -64 -19 -68 -31 -91
-121 -47 -188 8 -12 22 -25 31 -29 9 -4 255 -8 545 -9 491 -2 530 0 550 16 21
16 23 16 41 1 16 -15 50 -17 268 -18 226 -1 251 1 272 17 22 18 24 18 59 0 32
-16 62 -18 280 -17 225 1 247 3 266 20 11 10 23 27 26 36 5 16 11 15 55 -15
66 -44 132 -59 244 -53 71 4 105 11 153 32 l61 28 49 -29 c43 -25 57 -28 138
-28 65 0 98 5 120 17 24 13 35 14 50 5 30 -17 539 -18 562 -1 14 10 23 10 43
0 18 -9 92 -13 268 -12 l244 1 29 33 c61 68 28 178 -61 202 l-38 10 -5 263
c-3 144 -8 272 -12 283 -6 19 -3 21 19 17 14 -3 30 -10 35 -17 5 -6 43 -86 84
-176 41 -91 111 -241 156 -333 l81 -169 -55 -106 c-77 -151 -137 -238 -161
-233 -10 2 -43 5 -72 8 -103 10 -185 -73 -185 -186 0 -87 38 -142 122 -177 49
-20 157 -18 208 6 58 26 135 100 182 175 74 117 259 500 461 952 110 247 107
243 168 227 22 -6 22 -7 22 -204 0 -314 21 -410 111 -498 68 -67 131 -87 274
-87 98 0 130 4 176 21 l55 21 29 -25 c27 -23 35 -24 105 -19 41 3 125 13 185
23 99 15 113 20 142 49 17 18 34 47 38 67 14 73 -48 148 -122 148 l-32 0 -3
354 c-3 340 -4 356 -24 383 -11 15 -37 36 -58 47 -36 18 -39 18 -155 -3 -64
-12 -132 -21 -151 -21 -44 0 -97 -32 -110 -66 -21 -55 -6 -130 34 -164 9 -7
31 -16 48 -19 23 -5 34 -14 39 -31 4 -14 7 -114 8 -223 l1 -198 -35 -15 c-19
-8 -62 -17 -95 -21 -58 -6 -60 -5 -72 23 -8 20 -14 132 -17 349 -7 359 -7 362
-79 392 -34 14 -47 14 -165 -6 -71 -12 -134 -18 -140 -14 -6 4 -97 8 -202 8
-201 1 -229 -4 -259 -46 l-14 -21 -11 21 c-24 44 -50 48 -323 46 l-258 -1 -30
-29 c-16 -16 -30 -35 -30 -43 0 -8 -17 1 -42 22 -68 59 -136 80 -253 80 -84 0
-109 -3 -159 -24 l-59 -25 -47 23 -48 23 -143 -21 c-79 -12 -158 -23 -175 -26
-97 -14 -115 -182 -24 -229 16 -8 40 -15 53 -15 14 0 28 -7 31 -16 3 -9 6
-130 6 -270 0 -228 -6 -286 -23 -240 -9 24 -67 48 -103 44 l-33 -4 -3 256 c-5
294 -10 317 -90 405 -57 63 -141 103 -245 118 l-72 11 6 72 c16 191 -74 403
-239 560 -94 91 -264 197 -380 239 -139 51 -198 67 -243 67 -29 0 -87 12 -140
30 -67 22 -101 28 -135 25 -29 -4 -51 -1 -63 8 -27 20 -139 30 -167 15 -17 -9
-29 -9 -53 1 -17 7 -56 13 -86 13 -134 -1 -340 -14 -386 -24 -27 -6 -86 -15
-130 -20 -77 -8 -126 -16 -440 -75 -512 -95 -979 -55 -1395 120 -153 64 -347
221 -405 327 -36 66 -44 160 -21 240 23 81 21 110 -12 142 -39 37 -87 42 -134
15z m102 -39 c24 -24 25 -36 4 -107 -23 -78 -16 -182 17 -253 69 -149 304
-322 553 -409 199 -70 387 -106 627 -122 255 -16 425 1 879 86 107 20 215 35
240 34 25 -1 54 2 65 8 23 13 187 33 263 33 32 0 54 -5 62 -15 11 -13 15 -12
37 5 31 24 81 26 143 4 37 -13 51 -14 83 -3 57 19 128 2 145 -33 16 -33 23
-34 47 -8 10 11 29 20 41 20 25 0 160 -42 195 -61 17 -8 27 -8 46 2 20 11 33
10 81 -5 31 -10 66 -22 77 -26 11 -5 47 -18 80 -30 224 -80 444 -261 528 -435
59 -121 71 -175 72 -317 l0 -128 41 0 c123 0 248 -56 301 -134 57 -84 63 -122
63 -400 0 -138 4 -257 9 -265 7 -11 13 -11 32 3 35 24 68 20 99 -14 30 -32 56
-38 84 -17 16 12 17 35 14 293 -3 310 -4 314 -65 314 -76 0 -115 103 -57 149
15 12 41 21 59 21 18 0 85 9 149 20 103 18 120 19 150 6 19 -8 37 -24 41 -36
4 -11 10 -20 13 -18 156 83 232 95 352 59 61 -19 82 -31 125 -75 43 -43 58
-66 75 -122 20 -62 23 -97 27 -334 3 -146 9 -270 14 -276 5 -7 24 -14 41 -18
73 -15 106 -98 56 -142 -22 -19 -36 -20 -253 -18 -126 1 -233 2 -237 3 -17 3
-39 64 -33 91 8 35 30 56 75 67 29 8 36 15 43 49 5 21 7 138 5 259 -5 245 -13
282 -68 305 -64 27 -160 -15 -195 -85 -18 -35 -20 -64 -23 -249 -4 -244 0
-260 62 -278 60 -17 86 -44 86 -90 0 -74 -2 -75 -294 -74 -239 1 -259 2 -271
20 -13 18 -16 17 -66 -8 -85 -42 -199 -32 -260 22 l-31 27 -68 -33 c-58 -29
-82 -35 -157 -39 -210 -12 -325 85 -325 274 0 192 151 312 426 338 l76 7 0 59
c0 69 -18 120 -51 143 -32 22 -110 21 -139 -2 -23 -18 -23 -19 -6 -63 14 -36
15 -51 6 -74 -28 -74 -102 -114 -180 -96 -49 11 -78 34 -96 78 -31 73 -11 152
57 227 84 93 111 186 89 313 -25 144 -112 266 -254 356 -98 63 -200 106 -366
155 -170 51 -177 52 -495 72 -104 6 -198 16 -208 21 -12 6 -24 5 -40 -5 -15
-9 -72 -16 -182 -20 -149 -6 -270 -16 -635 -52 -219 -21 -591 -29 -750 -15
-365 32 -532 76 -804 213 -159 79 -240 134 -329 222 -149 147 -204 293 -178
465 23 147 99 223 161 161z m959 -1331 c17 -6 36 -19 41 -29 6 -11 10 -117 10
-245 l0 -227 33 20 c56 35 144 55 217 50 177 -13 313 -144 355 -343 54 -256
-51 -513 -251 -612 -98 -49 -145 -58 -304 -58 -120 1 -159 5 -228 24 -54 15
-88 31 -97 44 -13 18 -15 104 -15 583 0 437 -3 564 -12 572 -7 5 -29 13 -48
17 -62 12 -68 15 -80 45 -14 34 -6 82 19 104 11 10 59 23 117 32 54 8 119 19
144 23 64 12 64 12 99 0z m-669 -445 c119 -28 190 -86 230 -191 21 -54 23 -78
28 -330 2 -150 7 -273 11 -273 3 1 17 7 31 15 37 21 58 18 91 -14 41 -41 39
-78 -8 -126 -83 -85 -202 -108 -302 -59 -29 15 -55 32 -58 39 -3 10 -25 3 -81
-23 -74 -36 -81 -37 -187 -37 -97 0 -116 3 -159 25 -88 45 -136 132 -136 244
0 191 140 306 412 339 l100 12 -6 60 c-10 89 -24 123 -56 140 -40 21 -113 19
-140 -3 -22 -17 -22 -19 -6 -50 22 -42 20 -78 -5 -119 -26 -41 -71 -66 -124
-67 -93 -2 -150 56 -150 154 0 191 260 324 515 264z m2684 -17 c32 -15 75 -45
95 -67 l36 -40 46 38 c26 21 75 51 110 67 58 27 74 30 169 30 129 -1 188 -23
253 -95 75 -84 80 -106 86 -430 3 -157 9 -290 13 -296 4 -7 23 -15 42 -18 66
-13 97 -88 57 -137 -19 -24 -20 -24 -257 -25 -239 0 -239 0 -263 24 -44 44
-11 123 58 138 55 11 56 13 62 145 9 174 -3 374 -25 421 -35 73 -134 70 -211
-6 -59 -60 -67 -93 -72 -311 -5 -219 -1 -239 51 -249 66 -13 97 -87 57 -137
-19 -23 -20 -23 -255 -25 l-237 -1 -20 25 c-42 54 -12 119 63 137 l43 11 3
238 c3 253 -3 297 -42 343 -21 24 -31 27 -78 27 -86 -2 -141 -41 -170 -122
-18 -52 -18 -452 0 -475 7 -8 30 -18 52 -22 46 -8 69 -31 76 -76 4 -25 0 -41
-14 -59 l-20 -26 -519 2 c-285 1 -522 2 -526 3 -4 0 -15 17 -23 36 -12 30 -12
40 0 69 14 33 32 43 108 60 18 4 30 15 34 30 3 13 4 144 2 290 -3 251 -4 269
-22 282 -11 8 -33 14 -48 14 -68 0 -104 95 -55 144 17 17 39 24 92 30 39 4
109 14 157 22 78 13 90 13 117 0 16 -9 34 -29 40 -47 7 -21 11 -154 11 -390 0
-275 3 -360 13 -366 6 -4 32 -14 57 -23 37 -13 50 -13 70 -3 14 7 35 13 46 13
47 0 49 15 49 308 l0 274 -24 19 c-13 10 -32 19 -42 19 -33 0 -67 22 -79 51
-13 31 -6 82 15 99 8 7 58 18 112 25 54 7 123 18 153 24 70 14 105 7 131 -29
l21 -28 58 30 c77 40 111 48 205 44 62 -2 93 -8 139 -29z m4220 -7 c20 -20 21
-34 26 -343 6 -356 12 -390 65 -403 41 -10 135 4 185 29 l45 22 3 211 c1 116
-1 228 -6 250 -7 36 -11 40 -51 50 -54 13 -81 44 -81 94 0 54 30 75 118 83 38
4 104 14 146 23 64 13 83 14 108 3 55 -23 58 -43 58 -414 0 -213 4 -343 10
-356 8 -13 21 -19 48 -19 70 0 112 -53 92 -115 -6 -17 -21 -37 -33 -43 -25
-13 -259 -52 -312 -52 -34 0 -85 35 -85 58 0 5 -21 -1 -47 -13 -118 -56 -286
-60 -387 -11 -135 66 -166 164 -166 522 0 109 -4 203 -10 214 -6 11 -26 21
-52 25 -24 4 -49 12 -56 18 -9 7 -16 7 -23 0 -5 -5 -65 -133 -133 -284 -251
-559 -422 -905 -487 -984 -22 -27 -63 -66 -91 -85 -44 -31 -58 -35 -121 -38
-60 -2 -78 1 -111 20 -22 13 -48 35 -59 49 -25 34 -27 112 -3 157 34 65 124
92 186 55 25 -14 31 -15 46 -2 29 24 113 158 172 276 l55 112 -73 153 c-40 84
-113 240 -162 347 -49 107 -94 201 -100 208 -5 7 -28 18 -49 23 -44 12 -66 32
-75 66 -8 33 13 82 40 90 11 4 129 8 261 8 235 1 240 1 263 -21 48 -47 14
-128 -60 -139 -22 -4 -42 -12 -44 -19 -6 -15 74 -222 124 -320 l35 -70 28 60
c30 63 113 274 124 312 5 20 1 24 -40 34 -76 19 -106 98 -54 143 23 20 34 21
204 19 99 -1 191 -5 205 -8 14 -3 72 3 130 14 120 22 165 20 194 -9z m-727
-185 c21 -10 39 -19 40 -20 3 -2 -67 -182 -88 -227 -6 -16 -15 -28 -20 -28 -7
0 -113 250 -107 255 2 2 19 10 39 18 20 8 45 26 55 40 l19 25 12 -23 c7 -12
29 -30 50 -40z m-4325 -12 c8 -7 32 -16 54 -21 l39 -8 3 -265 2 -265 -41 -11
c-29 -7 -51 -8 -75 0 l-34 10 0 316 c0 311 0 315 18 286 11 -16 25 -36 34 -42z
m3294 -37 c18 -13 19 -30 22 -270 3 -239 2 -257 -15 -262 -10 -3 -30 -11 -45
-19 -16 -8 -30 -10 -33 -5 -3 5 -25 15 -48 21 -23 6 -45 16 -49 23 -13 19 -9
389 3 427 15 45 46 77 83 88 45 13 60 13 82 -3z m-2619 -23 c16 -24 18 -57 21
-263 l3 -236 -39 -12 c-22 -7 -45 -19 -52 -27 -11 -13 -15 -12 -37 5 -14 11
-41 22 -60 26 l-34 6 3 224 c3 208 4 224 24 251 28 37 60 53 111 53 35 0 46
-5 60 -27z m609 -13 c9 -24 13 -107 13 -262 l1 -227 -35 -7 c-19 -3 -45 -16
-59 -29 -24 -22 -25 -23 -42 -4 -10 11 -31 23 -48 27 l-31 8 -3 202 c-3 225 3
251 69 306 26 22 40 26 77 24 42 -3 46 -6 58 -38z"/>
<path d="M256 3377 c-25 -37 -39 -126 -33 -210 7 -111 53 -202 150 -300 183
-185 411 -303 718 -371 362 -80 695 -90 1226 -36 105 11 265 25 355 32 126 9
166 15 175 27 8 11 12 12 13 4 0 -17 86 -17 94 0 5 10 7 10 12 0 7 -17 25 -17
22 -1 -4 17 107 15 127 -2 12 -10 15 -9 15 8 0 14 -14 26 -45 41 -25 12 -49
21 -54 21 -5 0 -9 12 -8 28 l2 27 -123 -2 c-137 -2 -160 -6 -143 -26 23 -29
-29 -49 -58 -23 -21 19 -62 22 -134 13 -37 -6 -55 -12 -51 -19 4 -7 2 -8 -4
-4 -21 13 -134 -6 -153 -25 -21 -21 -35 -24 -41 -10 -2 6 -63 -1 -143 -14
-232 -40 -352 -48 -575 -42 -216 6 -338 21 -510 63 -114 28 -296 92 -375 132
-83 42 -206 127 -277 191 -151 138 -203 281 -163 446 8 33 14 63 15 68 0 15
-20 6 -34 -16z"/>
<path d="M3107 2653 c-4 -6 3 -29 15 -52 l20 -42 63 5 c34 2 71 9 82 14 24 13
67 10 87 -7 8 -7 20 -10 25 -7 5 4 12 2 16 -4 3 -5 13 -10 21 -10 9 0 12 5 8
12 -4 7 -3 8 4 4 17 -10 15 -33 -3 -40 -8 -3 -15 -2 -15 2 0 4 -18 7 -39 5
-30 -1 -40 2 -44 16 -2 10 -14 21 -26 24 -18 4 -21 2 -15 -11 4 -9 7 -25 8
-35 0 -10 9 -20 21 -22 46 -9 155 -12 155 -4 0 5 14 6 31 2 24 -4 34 -2 41 10
13 25 28 21 28 -7 0 -15 7 -26 20 -29 11 -3 20 -2 20 3 0 4 18 10 40 12 32 3
39 1 35 -12 -4 -11 13 -21 67 -37 40 -12 74 -20 76 -18 7 6 -46 55 -60 55 -9
0 -9 -3 2 -10 20 -12 10 -19 -20 -13 -17 3 -33 18 -48 45 -26 48 -22 60 11 32
35 -32 72 -45 86 -31 9 9 15 8 22 -5 6 -10 19 -18 29 -18 20 0 28 -15 11 -22
-4 -1 -11 -13 -15 -24 -6 -19 0 -23 60 -38 50 -13 69 -14 80 -5 11 9 14 7 14
-9 0 -14 17 -29 63 -52 34 -18 80 -44 101 -58 30 -18 47 -23 75 -19 33 6 35 5
16 -9 -18 -14 -17 -16 37 -72 64 -64 130 -180 148 -261 8 -32 11 -92 8 -151
-5 -109 -28 -172 -78 -214 -81 -68 -107 -170 -55 -221 33 -34 84 -33 125 2 34
28 36 46 9 109 -11 28 -10 36 4 58 30 45 65 61 137 61 58 0 71 -4 104 -29 55
-41 69 -83 70 -201 l1 -100 -100 -6 c-259 -16 -405 -119 -405 -287 0 -50 29
-127 57 -154 45 -44 99 -60 188 -60 92 1 144 17 217 66 l51 34 21 -31 c61 -91
212 -93 295 -3 29 31 22 62 -12 51 -57 -19 -92 -17 -112 5 -19 21 -20 41 -25
314 l-5 291 -28 48 c-54 91 -154 131 -308 125 l-81 -3 7 35 c16 88 17 248 1
311 -39 153 -138 295 -275 395 -86 63 -254 150 -309 160 -20 4 -40 11 -44 17
-3 6 -14 11 -25 12 -10 1 -31 8 -47 14 -25 10 -31 9 -38 -4 -13 -22 -39 -19
-94 12 -27 15 -44 20 -38 13 20 -25 14 -68 -10 -74 -31 -9 -58 -7 -52 3 7 11
-32 47 -41 38 -3 -4 -13 -1 -21 6 -13 10 -14 9 -8 -1 10 -16 -17 -26 -50 -18
-19 5 -24 11 -20 23 4 9 1 20 -6 25 -19 12 -62 10 -76 -4 -10 -10 -12 -7 -10
12 3 27 -3 28 -73 15 -32 -6 -38 -4 -43 13 -7 20 -34 30 -112 39 -23 3 -44 1
-47 -4z m1683 -1622 l0 -130 -33 -25 c-98 -75 -232 -73 -272 4 -21 41 -19 118
4 156 41 68 153 122 254 123 l47 1 0 -129z"/>
<path d="M4634 1079 c-72 -27 -109 -69 -109 -123 0 -24 6 -50 14 -59 19 -23
95 -22 149 3 l42 19 0 91 c0 87 -1 90 -22 89 -13 0 -46 -9 -74 -20z"/>
<path d="M5690 1611 c-55 -17 -113 -54 -163 -105 l-52 -53 9 68 c13 96 13 96
-131 75 -178 -25 -188 -28 -188 -50 0 -15 11 -23 46 -31 99 -26 99 -26 99
-388 0 -334 4 -318 -87 -341 -41 -10 -48 -16 -48 -37 0 -22 4 -24 40 -23 190
7 281 7 346 1 67 -7 77 -6 83 9 9 22 -8 40 -44 47 -47 10 -91 56 -101 107 -4
25 -8 119 -8 210 -1 236 21 314 106 374 35 24 55 30 117 34 l76 5 39 -39 c22
-23 44 -57 50 -79 7 -24 11 -138 11 -288 0 -285 -2 -296 -72 -319 -42 -14 -60
-40 -41 -59 6 -6 49 -5 109 1 65 7 133 7 199 1 78 -8 103 -7 113 3 21 20 4 41
-43 54 -78 21 -79 25 -85 347 -5 264 -7 283 -28 330 -49 106 -129 155 -252
154 -41 0 -86 -4 -100 -8z"/>
<path d="M1085 2036 c-114 -21 -120 -23 -120 -46 0 -21 7 -25 49 -34 35 -8 55
-19 70 -39 21 -28 21 -37 24 -592 l3 -564 52 -16 c81 -24 248 -37 331 -26 130
18 212 58 288 139 84 90 118 188 118 342 0 150 -39 257 -122 337 -64 62 -117
83 -214 83 -70 0 -89 -4 -142 -31 -34 -17 -77 -49 -97 -71 l-35 -41 -2 289 -3
289 -40 2 c-22 1 -94 -9 -160 -21z m520 -555 c42 -24 72 -72 85 -138 17 -80 8
-334 -14 -394 -61 -167 -243 -211 -354 -85 l-32 37 0 225 c0 244 2 255 57 305
81 75 179 94 258 50z"/>
<path d="M1424 1421 c-79 -46 -84 -62 -84 -298 1 -214 2 -218 57 -255 18 -11
47 -18 80 -18 44 0 58 5 87 31 60 52 79 120 80 284 1 92 -4 156 -13 188 -28
98 -109 124 -207 68z m133 -19 c61 -39 70 -341 13 -452 -24 -47 -45 -60 -100
-60 -30 0 -47 6 -65 25 -25 24 -25 26 -25 210 0 210 5 232 68 264 38 21 88 26
109 13z"/>
<path d="M365 1607 c-96 -32 -172 -92 -196 -154 -17 -47 -11 -102 16 -128 32
-32 91 -34 130 -4 28 23 28 22 9 131 -5 31 -2 41 19 62 32 32 98 50 156 41 34
-5 55 -16 82 -44 45 -45 59 -91 59 -198 l0 -82 -57 -5 c-198 -20 -282 -44
-355 -99 -119 -91 -125 -296 -10 -374 99 -66 278 -47 399 43 l31 24 20 -35
c44 -73 157 -93 244 -42 53 31 79 62 71 84 -4 10 -14 13 -32 8 -14 -4 -42 -9
-62 -12 -63 -9 -63 -5 -69 316 -6 315 -9 333 -72 398 -53 54 -118 76 -238 80
-68 2 -119 -2 -145 -10z m275 -577 l0 -130 -41 -29 c-47 -35 -132 -56 -181
-47 -90 17 -125 131 -69 223 35 57 154 110 254 112 l37 1 0 -130z"/>
<path d="M490 1080 c-72 -25 -110 -66 -110 -121 0 -65 12 -79 73 -79 35 0 65
8 92 23 l40 23 3 87 c3 85 2 87 -20 87 -13 -1 -48 -9 -78 -20z"/>
<path d="M3038 1606 c-64 -23 -125 -64 -167 -113 -44 -52 -48 -47 -30 38 9 43
9 54 -4 66 -14 14 -27 14 -129 -2 -179 -27 -183 -28 -183 -50 0 -15 11 -23 40
-31 64 -17 73 -23 89 -65 13 -33 16 -88 16 -323 l0 -283 -26 -26 c-14 -14 -43
-28 -64 -32 -48 -8 -70 -30 -49 -50 12 -11 33 -12 124 -3 73 7 144 7 210 1
112 -11 125 -9 125 18 0 11 -6 21 -12 23 -7 2 -32 9 -55 15 -72 20 -75 33 -71
314 3 226 4 245 25 282 45 84 114 125 211 125 75 0 118 -26 152 -95 24 -49 25
-56 28 -310 3 -252 3 -261 -18 -287 -13 -17 -36 -30 -63 -35 -32 -7 -43 -14
-45 -30 -4 -29 9 -31 126 -20 66 6 135 6 190 0 48 -6 93 -8 100 -5 20 7 10 46
-13 50 -44 7 -74 25 -85 52 -8 19 -10 99 -8 256 3 226 3 230 30 280 48 91 128
144 220 144 72 0 105 -21 136 -88 27 -56 27 -60 30 -309 4 -292 1 -304 -71
-324 -23 -6 -48 -13 -54 -15 -7 -2 -13 -12 -13 -23 0 -28 13 -29 137 -19 71 6
142 7 195 0 95 -10 110 -7 106 21 -2 14 -14 23 -38 29 -19 5 -45 20 -56 33
-21 22 -22 35 -27 302 -5 309 -13 355 -69 419 -47 53 -101 77 -189 82 -133 8
-253 -43 -330 -140 l-38 -48 -19 43 c-26 58 -83 112 -140 131 -55 19 -173 20
-224 2z"/>
<path d="M2170 1595 c-41 -7 -97 -16 -123 -20 -48 -6 -70 -26 -50 -46 5 -5 32
-15 59 -22 82 -20 84 -28 84 -373 0 -335 3 -324 -90 -347 -47 -12 -55 -18 -55
-38 0 -22 4 -24 40 -22 59 3 344 3 385 0 31 -2 35 1 35 22 0 20 -8 26 -47 38
-84 24 -82 13 -88 443 l-5 375 -35 2 c-19 1 -69 -5 -110 -12z"/>
<path d="M7340 1595 c-41 -8 -96 -17 -122 -20 -43 -6 -48 -9 -48 -31 0 -14 6
-26 13 -28 6 -2 31 -9 55 -15 74 -21 76 -28 83 -331 7 -299 12 -323 74 -386
50 -49 110 -68 215 -68 89 0 159 21 232 70 28 19 53 33 55 30 3 -2 7 -23 10
-45 3 -22 11 -45 18 -51 8 -6 56 -3 146 10 167 25 171 26 167 53 -2 17 -13 23
-47 29 -66 11 -88 30 -100 88 -7 31 -11 179 -11 376 0 290 -2 325 -16 331 -9
3 -46 0 -83 -7 -36 -6 -97 -16 -134 -20 -38 -4 -74 -13 -80 -19 -19 -19 6 -45
50 -54 78 -15 78 -14 81 -322 l3 -273 -63 -31 c-101 -49 -209 -58 -274 -23
-12 6 -30 28 -40 49 -17 34 -19 69 -22 358 -2 205 -7 324 -14 332 -13 16 -50
15 -148 -2z"/>
<path d="M6170 1566 c0 -16 11 -25 50 -39 60 -21 64 -28 140 -196 33 -72 105
-225 160 -340 60 -127 100 -221 100 -240 0 -39 -92 -226 -166 -338 -81 -122
-118 -145 -171 -103 -36 28 -70 25 -104 -9 -68 -68 -9 -171 99 -171 44 0 129
48 167 94 69 84 247 443 485 976 67 151 135 289 150 305 15 17 30 41 32 55 l4
25 -145 0 c-138 0 -146 -1 -146 -20 0 -14 11 -22 44 -32 24 -7 49 -18 57 -24
23 -19 16 -73 -22 -176 -48 -130 -160 -363 -174 -363 -26 0 -199 403 -208 481
-4 41 -1 49 19 62 13 9 41 19 62 22 29 6 37 12 37 29 l0 22 -235 1 c-232 0
-235 0 -235 -21z"/>
<path d="M2121 2089 c-146 -74 -145 -275 3 -351 126 -66 273 12 292 154 9 65
-29 146 -86 184 -59 39 -147 44 -209 13z m187 -45 c32 -24 72 -98 72 -134 0
-42 -42 -113 -79 -134 -75 -43 -187 -12 -230 64 -44 79 -11 177 74 216 41 19
129 13 163 -12z"/>
<path d="M2183 2009 c-60 -17 -92 -94 -63 -150 15 -27 62 -49 105 -49 76 0
123 95 79 159 -13 19 -74 54 -86 50 -2 0 -17 -5 -35 -10z"/>
</g>
</svg>
